<svg width="76" height="76" viewBox="0 0 76 76" fill="none" xmlns="http://www.w3.org/2000/svg">
<path d="M75.9999 37.9999C76.0129 29.5274 73.1814 21.2957 67.9591 14.624C38.8461 17.2573 34.2965 30.8987 0.575951 31.3767C0.192542 33.5636 -0.000162033 35.7797 1.36395e-05 37.9999C-0.00189637 40.2619 0.196798 42.5196 0.593763 44.7464C34.2608 45.2303 38.8401 58.8391 67.8671 61.4916C73.1466 54.8006 76.0123 46.523 75.9999 37.9999Z" fill="#FE4382"/>
<path d="M57.9811 70.3266C61.7674 67.9809 65.1141 64.9908 67.87 61.4917C38.8431 58.8391 34.2638 45.2304 0.59375 44.7465C1.22796 48.2826 2.36409 51.71 3.96773 54.9248C28.2877 55.7768 36.1653 66.5356 57.9811 70.3266Z" fill="#FF2796"/>
<path d="M38 76C45.0592 76.0104 51.9806 74.0452 57.9811 70.3267C36.1608 66.5356 28.2936 55.7798 3.9707 54.9248C10.1962 67.4173 23.0954 76 38 76Z" fill="#FB7A5B"/>
<path d="M38.0002 2.00987e-05C19.2733 2.00987e-05 3.71117 13.5479 0.576172 31.3767C34.2967 30.8987 38.8463 17.2573 67.9667 14.6241C64.4156 10.065 59.8699 6.37745 54.6764 3.84297C49.4829 1.3085 43.7791 -0.00592816 38.0002 2.00987e-05Z" fill="#FD5F6E"/>
<path d="M49.5845 47.0843C50.2838 47.0843 50.8507 46.5175 50.8507 45.8182C50.8507 45.1189 50.2838 44.552 49.5845 44.552C48.8852 44.552 48.3184 45.1189 48.3184 45.8182C48.3184 46.5175 48.8852 47.0843 49.5845 47.0843Z" fill="#B440A1"/>
<path d="M44.5181 42.0167C45.2174 42.0167 45.7843 41.4498 45.7843 40.7505C45.7843 40.0513 45.2174 39.4844 44.5181 39.4844C43.8188 39.4844 43.252 40.0513 43.252 40.7505C43.252 41.4498 43.8188 42.0167 44.5181 42.0167Z" fill="#B440A1"/>
<path d="M43.2496 12.1868C43.9489 12.1868 44.5157 11.6199 44.5157 10.9206C44.5157 10.2213 43.9489 9.65442 43.2496 9.65442C42.5503 9.65442 41.9834 10.2213 41.9834 10.9206C41.9834 11.6199 42.5503 12.1868 43.2496 12.1868Z" fill="#FF2796"/>
<path d="M24.2776 4.18451C24.2776 3.6442 24.2523 3.1113 24.2048 2.58435C15.2315 6.09269 7.91917 12.8683 3.73828 21.5487C4.70712 21.7105 5.68767 21.7919 6.66992 21.7921C11.3398 21.7921 15.8183 19.9371 19.1204 16.635C22.4225 13.3329 24.2776 8.85434 24.2776 4.18451Z" fill="#DDA85B"/>
<path d="M72.3226 21.6748C68.6164 22.5105 65.3047 24.5823 62.9321 27.5498C60.5595 30.5172 59.2672 34.2036 59.2676 38.0029C59.2676 41.8033 60.561 45.4904 62.935 48.458C65.3091 51.4256 68.6224 53.4968 72.3301 54.331C74.7562 49.2292 76.0099 43.6492 75.9994 38C76.0065 32.3521 74.7503 26.7743 72.3226 21.6748Z" fill="#FB7A5B"/>
<g style="mix-blend-mode:multiply" opacity="0.24">
<path d="M39.0693 0.0163574C56.1619 4.20081 68.8474 19.6101 68.8474 38C68.8474 56.3899 56.1619 71.8007 39.0693 75.9851C59.5611 75.4196 76.0005 58.6298 76.0005 38C76.0005 17.3702 59.5611 0.581904 39.0693 0.0163574Z" fill="#FE4382"/>
</g>
</svg>
